<?xml version="1.0" encoding="UTF-8"?>
<svg xmlns="http://www.w3.org/2000/svg" xmlns:xlink="http://www.w3.org/1999/xlink" width="2400" height="2400" viewBox="0 0 2400 2400">
<path fill-rule="evenodd" fill="rgb(0%, 0%, 0%)" fill-opacity="1" d="M 425.214844 1151.519531 C 424.898438 1147.410156 424.738281 1143.289062 424.738281 1139.160156 C 424.738281 1062.210938 481.480469 989.03125 582.027344 931.351562 C 721.460938 851.351562 946.347656 798.761719 1200 798.761719 C 1453.648438 798.761719 1678.539062 851.351562 1817.96875 931.351562 C 1918.519531 989.03125 1975.261719 1062.210938 1975.261719 1139.160156 C 1975.261719 1143.109375 1975.121094 1147.039062 1974.828125 1150.960938 L 1975.261719 1150.53125 L 1975.261719 1651.601562 C 1975.261719 1716.542969 1935.351562 1778.589844 1862.511719 1830.894531 C 1762.25 1902.882812 1598.050781 1957.839844 1402.589844 1980.511719 C 1338.078125 1987.996094 1270.140625 1992 1200 1992 C 1129.859375 1992 1061.921875 1987.996094 997.40625 1980.511719 C 801.949219 1957.839844 637.75 1902.882812 537.492188 1830.894531 C 464.652344 1778.589844 424.738281 1716.542969 424.738281 1651.601562 C 424.738281 1647.441406 424.898438 1643.367188 425.214844 1639.40625 Z M 1925.558594 1148.460938 C 1925.820312 1145.371094 1925.949219 1142.269531 1925.949219 1139.160156 C 1925.949219 1076.671875 1875.089844 1020.960938 1793.429688 974.121094 C 1659.601562 897.339844 1443.46875 848.070312 1200 848.070312 C 956.527344 848.070312 740.402344 897.339844 606.566406 974.121094 C 524.910156 1020.960938 474.046875 1076.671875 474.046875 1139.160156 C 474.046875 1142.269531 474.179688 1145.371094 474.4375 1148.460938 C 479.585938 1209.46875 532.699219 1263.648438 615.253906 1309.070312 C 749.703125 1383.050781 961.757812 1430.242188 1200 1430.242188 C 1438.238281 1430.242188 1650.300781 1383.050781 1784.75 1309.070312 C 1867.300781 1263.648438 1920.421875 1209.46875 1925.558594 1148.460938 Z M 1424.410156 1928.097656 C 1597.800781 1904.902344 1743.351562 1855.746094 1833.75 1790.839844 C 1891.179688 1749.601562 1925.949219 1702.804688 1925.949219 1651.601562 L 1925.949219 1260.691406 C 1897.800781 1293.988281 1858.148438 1324.96875 1808.519531 1352.28125 C 1668.550781 1429.285156 1448.019531 1479.554688 1200 1479.554688 C 951.976562 1479.554688 731.453125 1429.285156 591.484375 1352.28125 C 542.128906 1325.121094 502.652344 1294.351562 474.527344 1261.25 L 474.527344 1640.429688 C 474.527344 1641.148438 474.496094 1641.863281 474.433594 1642.578125 C 474.175781 1645.519531 474.046875 1648.527344 474.046875 1651.601562 C 474.046875 1702.804688 508.816406 1749.601562 566.25 1790.839844 C 656.648438 1855.746094 802.203125 1904.902344 975.59375 1928.097656 L 975.59375 1749.257812 C 975.59375 1735.640625 986.632812 1724.601562 1000.25 1724.601562 L 1399.75 1724.601562 C 1413.371094 1724.601562 1424.410156 1735.640625 1424.410156 1749.257812 Z M 1024.898438 1933.910156 C 1081.050781 1939.648438 1139.679688 1942.691406 1200 1942.691406 C 1260.308594 1942.691406 1318.949219 1939.648438 1375.101562 1933.910156 L 1375.101562 1773.910156 L 1024.898438 1773.910156 Z M 718.152344 1025.511719 C 709.835938 1014.738281 711.832031 999.238281 722.605469 990.929688 C 733.378906 982.621094 748.871094 984.609375 757.1875 995.378906 L 842.035156 1105.320312 C 850.347656 1116.101562 848.351562 1131.589844 837.582031 1139.910156 C 826.808594 1148.21875 811.3125 1146.21875 803 1135.449219 Z M 1175.339844 913.351562 C 1175.339844 899.75 1186.390625 888.699219 1200 888.699219 C 1213.609375 888.699219 1224.660156 899.75 1224.660156 913.351562 L 1224.660156 1052.230469 C 1224.660156 1065.839844 1213.609375 1076.878906 1200 1076.878906 C 1186.390625 1076.878906 1175.339844 1065.839844 1175.339844 1052.230469 Z M 1642.808594 995.378906 C 1651.128906 984.609375 1666.621094 982.621094 1677.390625 990.929688 C 1688.171875 999.238281 1690.160156 1014.738281 1681.851562 1025.511719 L 1597 1135.449219 C 1588.691406 1146.21875 1573.191406 1148.21875 1562.421875 1139.910156 C 1551.648438 1131.589844 1549.648438 1116.101562 1557.960938 1105.320312 Z M 771.804688 1327.808594 C 771.804688 1341.421875 760.757812 1352.46875 747.148438 1352.46875 C 733.539062 1352.46875 722.492188 1341.421875 722.492188 1327.808594 C 722.492188 1278.519531 757.886719 1230.910156 822.300781 1193.960938 C 907.53125 1145.058594 1044.949219 1112.671875 1200 1112.671875 C 1355.050781 1112.671875 1492.46875 1145.058594 1577.699219 1193.960938 C 1642.109375 1230.910156 1677.511719 1278.519531 1677.511719 1327.808594 C 1677.511719 1341.421875 1666.460938 1352.46875 1652.851562 1352.46875 C 1639.238281 1352.46875 1628.199219 1341.421875 1628.199219 1327.808594 C 1628.199219 1292.96875 1598.691406 1262.851562 1553.160156 1236.730469 C 1473.519531 1191.039062 1344.871094 1161.980469 1200 1161.980469 C 1055.128906 1161.980469 926.476562 1191.039062 846.839844 1236.730469 C 801.3125 1262.851562 771.804688 1292.96875 771.804688 1327.808594 Z M 1722.800781 1542.921875 L 1804.308594 1502.386719 C 1811.960938 1498.585938 1821.019531 1499.007812 1828.28125 1503.503906 C 1835.53125 1507.996094 1839.949219 1515.925781 1839.949219 1524.460938 L 1839.949219 1627.3125 C 1839.949219 1636.671875 1834.648438 1645.222656 1826.269531 1649.386719 L 1744.75 1689.925781 C 1737.109375 1693.726562 1728.050781 1693.304688 1720.789062 1688.808594 C 1713.53125 1684.3125 1709.121094 1676.386719 1709.121094 1667.851562 L 1709.121094 1565 C 1709.121094 1555.640625 1714.421875 1547.089844 1722.800781 1542.921875 Z M 1758.429688 1580.273438 L 1758.429688 1628.054688 L 1790.640625 1612.035156 L 1790.640625 1564.257812 Z M 894.941406 1621.824219 L 894.941406 1724.675781 C 894.941406 1732.1875 891.519531 1739.289062 885.640625 1743.964844 C 879.765625 1748.644531 872.078125 1750.386719 864.757812 1748.703125 L 783.242188 1729.933594 C 772.046875 1727.359375 764.117188 1717.394531 764.117188 1705.910156 L 764.117188 1603.058594 C 764.117188 1595.546875 767.539062 1588.445312 773.417969 1583.765625 C 779.296875 1579.089844 786.984375 1577.347656 794.304688 1579.03125 L 875.820312 1597.796875 C 887.011719 1600.375 894.941406 1610.339844 894.941406 1621.824219 Z M 845.632812 1641.449219 L 813.425781 1634.035156 L 813.425781 1686.285156 L 845.632812 1693.699219 Z M 1525.421875 1597.796875 L 1606.941406 1579.03125 C 1614.261719 1577.347656 1621.941406 1579.089844 1627.820312 1583.765625 C 1633.699219 1588.445312 1637.121094 1595.546875 1637.121094 1603.058594 L 1637.121094 1705.910156 C 1637.121094 1717.394531 1629.191406 1727.359375 1618 1729.933594 L 1536.480469 1748.703125 C 1529.160156 1750.386719 1521.46875 1748.644531 1515.601562 1743.964844 C 1509.71875 1739.289062 1506.300781 1732.1875 1506.300781 1724.675781 L 1506.300781 1621.824219 C 1506.300781 1610.339844 1514.230469 1600.375 1525.421875 1597.796875 Z M 1555.609375 1641.449219 L 1555.609375 1693.699219 L 1587.808594 1686.285156 L 1587.808594 1634.035156 Z M 692.121094 1565 L 692.121094 1667.851562 C 692.121094 1676.386719 687.707031 1684.3125 680.449219 1688.808594 C 673.195312 1693.304688 664.128906 1693.726562 656.488281 1689.925781 L 574.972656 1649.386719 C 566.59375 1645.222656 561.292969 1636.671875 561.292969 1627.3125 L 561.292969 1524.460938 C 561.292969 1515.925781 565.710938 1507.996094 572.964844 1503.503906 C 580.222656 1499.007812 589.285156 1498.585938 596.929688 1502.386719 L 678.445312 1542.921875 C 686.824219 1547.089844 692.121094 1555.640625 692.121094 1565 Z M 642.808594 1580.273438 L 610.605469 1564.257812 L 610.605469 1612.035156 L 642.808594 1628.054688 Z M 1101.03125 620.101562 L 1036.71875 620.101562 C 1023.101562 620.101562 1012.058594 609.058594 1012.058594 595.441406 L 1012.058594 432.660156 C 1012.058594 419.039062 1023.101562 408 1036.71875 408 L 1363.289062 408 C 1376.898438 408 1387.941406 419.039062 1387.941406 432.660156 L 1387.941406 595.441406 C 1387.941406 609.058594 1376.898438 620.101562 1363.289062 620.101562 L 1291.871094 620.101562 L 1291.871094 752.550781 C 1291.871094 766.148438 1280.820312 777.199219 1267.210938 777.199219 C 1253.601562 777.199219 1242.558594 766.148438 1242.558594 752.550781 L 1242.558594 620.101562 L 1150.339844 620.101562 L 1150.339844 752.550781 C 1150.339844 766.148438 1139.289062 777.199219 1125.691406 777.199219 C 1112.078125 777.199219 1101.03125 766.148438 1101.03125 752.550781 Z M 1267.210938 570.789062 L 1338.628906 570.789062 L 1338.628906 457.308594 L 1061.371094 457.308594 L 1061.371094 570.789062 Z M 1111.460938 538.699219 C 1097.851562 538.699219 1086.800781 527.660156 1086.800781 514.050781 C 1086.800781 500.441406 1097.851562 489.390625 1111.460938 489.390625 L 1281.441406 489.390625 C 1295.039062 489.390625 1306.089844 500.441406 1306.089844 514.050781 C 1306.089844 527.660156 1295.039062 538.699219 1281.441406 538.699219 Z M 679.917969 709.199219 L 635.015625 725.269531 C 627.464844 727.96875 619.070312 726.828125 612.511719 722.210938 C 605.953125 717.601562 602.050781 710.078125 602.050781 702.058594 L 602.050781 539.269531 C 602.050781 528.851562 608.59375 519.558594 618.398438 516.050781 L 904.210938 413.769531 C 911.761719 411.070312 920.15625 412.210938 926.714844 416.820312 C 933.273438 421.441406 937.175781 428.960938 937.175781 436.980469 L 937.175781 599.769531 C 937.175781 610.191406 930.632812 619.480469 920.828125 622.988281 L 853.089844 647.230469 L 853.089844 786.96875 C 853.089844 800.570312 842.042969 811.621094 828.433594 811.621094 C 814.828125 811.621094 803.78125 800.570312 803.78125 786.96875 L 803.78125 664.871094 L 729.226562 691.550781 L 729.226562 831.289062 C 729.226562 844.898438 718.179688 855.949219 704.574219 855.949219 C 690.964844 855.949219 679.917969 844.898438 679.917969 831.289062 Z M 820.128906 606.648438 L 887.863281 582.410156 L 887.863281 471.988281 L 651.363281 556.628906 C 651.363281 556.628906 651.363281 667.050781 651.363281 667.050781 Z M 708.589844 621.238281 C 695.761719 625.789062 681.65625 619.070312 677.109375 606.238281 C 672.5625 593.421875 679.285156 579.308594 692.109375 574.761719 L 834.488281 524.28125 C 847.316406 519.730469 861.421875 526.449219 865.96875 539.28125 C 870.515625 552.101562 863.792969 566.210938 850.96875 570.75 Z M 1548.148438 647.230469 L 1480.410156 622.988281 C 1470.609375 619.480469 1464.058594 610.191406 1464.058594 599.769531 L 1464.058594 436.980469 C 1464.058594 428.960938 1467.96875 421.441406 1474.53125 416.820312 C 1481.078125 412.210938 1489.480469 411.070312 1497.03125 413.769531 L 1782.839844 516.050781 C 1792.640625 519.558594 1799.191406 528.851562 1799.191406 539.269531 L 1799.191406 702.058594 C 1799.191406 710.078125 1795.289062 717.601562 1788.730469 722.210938 C 1782.171875 726.828125 1773.78125 727.96875 1766.230469 725.269531 L 1721.320312 709.199219 L 1721.320312 831.289062 C 1721.320312 844.898438 1710.269531 855.949219 1696.671875 855.949219 C 1683.058594 855.949219 1672.011719 844.898438 1672.011719 831.289062 L 1672.011719 691.550781 L 1597.460938 664.871094 L 1597.460938 786.96875 C 1597.460938 800.570312 1586.410156 811.621094 1572.808594 811.621094 C 1559.199219 811.621094 1548.148438 800.570312 1548.148438 786.96875 Z M 1704.96875 650.980469 C 1731.488281 660.46875 1749.878906 667.050781 1749.878906 667.050781 L 1749.878906 556.628906 L 1513.378906 471.988281 L 1513.378906 582.410156 C 1513.378906 582.410156 1542.910156 592.980469 1581.109375 606.648438 Z M 1704.910156 574.761719 C 1717.730469 579.308594 1724.449219 593.421875 1719.898438 606.238281 C 1715.359375 619.070312 1701.25 625.789062 1688.429688 621.238281 L 1546.050781 570.75 C 1533.21875 566.210938 1526.5 552.101562 1531.050781 539.28125 C 1535.589844 526.449219 1549.699219 519.730469 1562.53125 524.28125 L 1704.910156 574.761719 "/>
</svg>
