<?xml version="1.0" standalone="no"?>
<!DOCTYPE svg PUBLIC "-//W3C//DTD SVG 20010904//EN"
 "http://www.w3.org/TR/2001/REC-SVG-20010904/DTD/svg10.dtd">
<svg version="1.0" xmlns="http://www.w3.org/2000/svg"
 width="240.000000pt" height="240.000000pt" viewBox="0 0 240.000000 240.000000"
 preserveAspectRatio="xMidYMid meet">

<g transform="translate(0.000000,240.000000) scale(0.100000,-0.100000)"
fill="#000000" stroke="none">
<path d="M1105 2394 c-486 -52 -876 -356 -1033 -804 -48 -138 -65 -239 -65
-390 0 -508 313 -952 793 -1124 286 -103 561 -97 853 20 155 62 271 140 396
267 133 135 217 270 279 447 48 138 65 239 65 390 0 203 -42 372 -139 560
-161 311 -482 548 -833 615 -80 16 -251 26 -316 19z m-357 -696 c1 -54 5 -98
8 -98 2 0 16 7 29 16 19 12 41 15 87 12 55 -4 64 -8 94 -40 41 -46 58 -105 52
-190 -7 -85 -35 -133 -95 -160 -51 -23 -119 -17 -157 13 -24 19 -25 19 -28 -3
-3 -22 -7 -23 -93 -23 l-90 0 -3 279 c-2 204 1 282 9 287 7 4 51 6 98 5 l86
-1 3 -97z m1002 -9 l0 -69 45 0 45 0 0 -60 0 -60 -40 0 -41 0 3 -72 3 -73 38
-3 37 -3 0 -55 c0 -50 -2 -55 -27 -65 -53 -21 -135 -22 -172 -2 -61 32 -73 60
-79 172 l-5 101 -27 0 c-25 0 -28 4 -33 50 -8 65 -1 80 34 80 28 0 29 2 29 45
0 44 1 44 43 55 23 6 62 17 87 25 25 7 48 11 53 8 4 -2 7 -35 7 -74z m-332
-88 c47 -33 65 -75 66 -151 l1 -65 -123 -5 -122 -5 16 -24 c15 -21 22 -23 93
-19 42 3 84 8 94 12 15 7 17 2 17 -48 l0 -55 -57 -17 c-87 -25 -199 -16 -259
22 -62 38 -94 97 -94 171 0 92 39 159 115 195 59 28 207 22 253 -11z m-636
-485 c91 -12 148 -67 148 -146 0 -35 -6 -48 -35 -77 -33 -33 -34 -36 -18 -49
10 -7 21 -14 24 -14 15 0 31 -64 26 -106 -6 -54 -27 -80 -87 -107 -52 -24
-177 -28 -247 -8 l-43 12 0 54 c0 30 3 56 8 59 4 2 36 -2 70 -10 70 -16 114
-6 120 29 6 32 -17 47 -74 47 l-54 0 0 59 0 59 48 -1 c57 -1 72 7 72 37 0 38
-23 49 -88 43 -31 -3 -67 -9 -79 -13 -22 -6 -23 -4 -23 54 0 68 0 69 95 82 49
7 59 6 137 -4z m576 -2 c20 -6 22 -13 22 -66 0 -56 -1 -59 -21 -53 -37 12
-154 8 -176 -6 -22 -13 -48 -58 -39 -66 3 -3 19 0 37 6 103 36 220 -24 234
-120 10 -64 -9 -121 -50 -158 -45 -39 -131 -65 -188 -56 -141 23 -210 108
-211 255 0 131 59 222 166 255 44 14 186 19 226 9z m460 -61 l-3 -58 -93 -3
-93 -3 3 -32 c3 -31 5 -32 59 -38 34 -4 69 -15 87 -27 83 -60 82 -210 -2 -261
-52 -32 -142 -45 -227 -32 -41 7 -78 16 -82 20 -5 5 -7 30 -5 57 l3 49 75 -3
c65 -3 78 -1 94 16 23 27 17 63 -14 79 -14 7 -55 13 -92 13 l-68 0 0 140 0
140 180 0 181 0 -3 -57z"/>
<path d="M750 1481 c-5 -11 -10 -36 -10 -56 0 -64 35 -96 68 -63 12 12 16 95
6 122 -9 22 -51 20 -64 -3z"/>
<path d="M1247 1523 c-4 -3 -7 -19 -7 -35 0 -26 3 -28 40 -28 43 0 50 13 30
51 -10 18 -50 26 -63 12z"/>
<path d="M1173 832 c-19 -12 -31 -55 -22 -79 22 -61 99 -44 99 22 0 51 -40 81
-77 57z"/>
</g>
</svg>
